{
.appVersion = "3343";
.formatVersion = 3;
axes = (
{
name = Position;
tag = POSI;
}
);
date = "2024-02-27 16:46:26 +0000";
familyName = CakeCake;
fontMaster = (
{
axesValues = (
0
);
customParameters = (
{
name = typoAscender;
value = 800;
},
{
name = typoDescender;
value = -200;
},
{
name = typoLineGap;
value = 200;
},
{
name = winAscent;
value = 1000;
},
{
name = winDescent;
value = 200;
},
{
name = hheaAscender;
value = 1000;
},
{
name = hheaDescender;
value = -200;
},
{
name = strikeoutPosition;
value = 250;
},
{
name = strikeoutSize;
value = 50;
},
{
name = "Master Icon Glyph Name";
value = A;
}
);
id = m01;
metricValues = (
{
pos = 800;
},
{
pos = 700;
},
{
pos = 500;
},
{
},
{
pos = -200;
},
{
}
);
name = Frame1;
userData = {
GSCornerRadius = 30;
};
},
{
axesValues = (
300
);
customParameters = (
{
name = typoAscender;
value = 800;
},
{
name = typoDescender;
value = -200;
},
{
name = typoLineGap;
value = 200;
},
{
name = winAscent;
value = 1000;
},
{
name = winDescent;
value = 200;
},
{
name = hheaAscender;
value = 1000;
},
{
name = hheaDescender;
value = -200;
},
{
name = strikeoutPosition;
value = 250;
},
{
name = strikeoutSize;
value = 50;
},
{
name = "Master Icon Glyph Name";
value = A;
}
);
id = m002;
metricValues = (
{
pos = 800;
},
{
pos = 700;
},
{
pos = 500;
},
{
},
{
pos = -200;
},
{
}
);
name = Frame2;
userData = {
GSCornerRadius = 30;
};
}
);
glyphs = (
{
glyphname = A;
lastChange = "2025-10-03 16:25:01 +0000";
layers = (
{
layerId = m01;
shapes = (
{
closed = 1;
nodes = (
(20,0,l),
(620,0,l),
(620,639,ls),
(620,665,o),
(585,700,o),
(559,700,qs),
(81,700,ls),
(55,700,o),
(20,665,o),
(20,639,qs)
);
},
{
closed = 1;
nodes = (
(144,211,ls),
(144,219,o),
(156,231,o),
(164,231,qs),
(406,231,ls),
(414,231,o),
(426,219,o),
(426,211,qs),
(426,0,l),
(144,0,l)
);
},
{
closed = 1;
nodes = (
(144,392,ls),
(144,400,o),
(156,412,o),
(164,412,qs),
(281,412,ls),
(289,412,o),
(301,400,o),
(301,392,qs),
(301,367,ls),
(301,359,o),
(289,347,o),
(281,347,qs),
(164,347,ls),
(156,347,o),
(144,359,o),
(144,367,qs)
);
}
);
width = 640;
},
{
layerId = m002;
shapes = (
{
closed = 1;
nodes = (
(20,0,l),
(620,0,l),
(620,639,ls),
(620,665,o),
(585,700,o),
(559,700,qs),
(81,700,ls),
(55,700,o),
(20,665,o),
(20,639,qs)
);
},
{
closed = 1;
nodes = (
(144,67,ls),
(144,70,o),
(156,74,o),
(164,74,qs),
(406,74,ls),
(414,74,o),
(426,70,o),
(426,67,qs),
(426,0,l),
(144,0,l)
);
},
{
closed = 1;
nodes = (
(423,392,ls),
(423,400,o),
(435,412,o),
(443,412,qs),
(560,412,ls),
(568,412,o),
(580,400,o),
(580,392,qs),
(580,367,ls),
(580,359,o),
(568,347,o),
(560,347,qs),
(443,347,ls),
(435,347,o),
(423,359,o),
(423,367,qs)
);
}
);
width = 640;
}
);
note = A;
unicode = (65,97);
},
{
glyphname = B;
lastChange = "2025-10-03 16:25:01 +0000";
layers = (
{
layerId = m01;
shapes = (
{
closed = 1;
nodes = (
(558,0,ls),
(585,0,o),
(620,35,o),
(620,61,qs),
(620,389,ls),
(620,415,o),
(585,450,o),
(558,450,qs),
(457,450,l),
(457,639,ls),
(457,665,o),
(422,700,o),
(395,700,qs),
(20,700,l),
(20,0,l)
);
},
{
closed = 1;
nodes = (
(136,480,ls),
(134,480,o),
(129,486,o),
(129,490,qs),
(129,560,ls),
(129,564,o),
(134,570,o),
(136,570,qs),
(290,570,ls),
(298,570,o),
(298,560,qs),
(298,490,ls),
(298,480,o),
(290,480,qs)
);
},
{
closed = 1;
nodes = (
(140,234,ls),
(135,234,o),
(129,244,o),
(129,251,qs),
(129,364,ls),
(129,371,o),
(135,380,o),
(140,380,qs),
(384,380,ls),
(389,380,o),
(396,371,o),
(396,364,qs),
(396,251,ls),
(396,244,o),
(389,234,o),
(384,234,qs)
);
}
);
width = 640;
},
{
layerId = m002;
shapes = (
{
closed = 1;
nodes = (
(558,0,ls),
(585,0,o),
(620,35,o),
(620,61,qs),
(620,389,ls),
(620,415,o),
(585,450,o),
(558,450,qs),
(457,450,l),
(457,639,ls),
(457,665,o),
(422,700,o),
(395,700,qs),
(20,700,l),
(20,0,l)
);
},
{
closed = 1;
nodes = (
(110,303,ls),
(107,303,o),
(98,324,o),
(98,338,qs),
(98,585,ls),
(98,598,o),
(107,620,o),
(110,620,qs),
(377,620,ls),
(391,620,o),
(391,585,qs),
(391,338,ls),
(391,303,o),
(377,303,qs)
);
},
{
closed = 1;
nodes = (
(438,55,ls),
(435,55,o),
(433,64,o),
(433,70,qs),
(433,172,ls),
(433,178,o),
(435,184,o),
(438,184,qs),
(558,184,ls),
(559,184,o),
(563,178,o),
(563,172,qs),
(563,70,ls),
(563,64,o),
(559,55,o),
(558,55,qs)
);
}
);
width = 640;
}
);
note = B;
unicode = (66,98);
},
{
glyphname = C;
lastChange = "2025-10-03 16:25:01 +0000";
layers = (
{
layerId = m01;
shapes = (
{
closed = 1;
nodes = (
(620,0,l),
(620,90,l),
(179,90,ls),
(166,90,o),
(148,108,o),
(148,121,qs),
(148,409,ls),
(148,422,o),
(166,440,o),
(179,440,qs),
(620,440,l),
(620,700,l),
(81,700,ls),
(55,700,o),
(20,665,o),
(20,639,qs),
(20,61,ls),
(20,35,o),
(55,0,o),
(81,0,qs)
);
}
);
width = 640;
},
{
layerId = m002;
shapes = (
{
closed = 1;
nodes = (
(620,0,l),
(620,165,l),
(479,165,ls),
(475,165,o),
(469,170,o),
(469,173,qs),
(469,248,ls),
(469,251,o),
(475,256,o),
(479,256,qs),
(620,256,l),
(620,700,l),
(81,700,ls),
(55,700,o),
(20,665,o),
(20,639,qs),
(20,61,ls),
(20,35,o),
(55,0,o),
(81,0,qs)
);
}
);
width = 640;
}
);
note = C;
unicode = (67,99);
},
{
glyphname = D;
lastChange = "2025-10-03 16:25:01 +0000";
layers = (
{
layerId = m01;
shapes = (
{
closed = 1;
nodes = (
(559,0,ls),
(585,0,o),
(620,35,o),
(620,61,qs),
(620,394,ls),
(620,481,o),
(541,621,o),
(401,700,o),
(314,700,qs),
(20,700,l),
(20,0,l)
);
},
{
closed = 1;
nodes = (
(114,557,ls),
(114,570,o),
(132,588,o),
(145,588,qs),
(195,588,ls),
(268,588,o),
(384,522,o),
(450,406,o),
(450,333,qs),
(450,282,ls),
(450,269,o),
(432,251,o),
(419,251,qs),
(145,251,ls),
(132,251,o),
(114,269,o),
(114,282,qs)
);
}
);
width = 640;
},
{
layerId = m002;
shapes = (
{
closed = 1;
nodes = (
(559,0,ls),
(585,0,o),
(620,35,o),
(620,61,qs),
(620,394,ls),
(620,481,o),
(541,621,o),
(401,700,o),
(314,700,qs),
(20,700,l),
(20,0,l)
);
},
{
closed = 1;
nodes = (
(150,252,ls),
(150,256,o),
(155,263,o),
(159,263,qs),
(174,263,ls),
(196,263,o),
(230,239,o),
(250,195,o),
(250,168,qs),
(250,149,ls),
(250,144,o),
(245,137,o),
(241,137,qs),
(159,137,ls),
(155,137,o),
(150,144,o),
(150,149,qs)
);
}
);
width = 640;
}
);
note = D;
unicode = (68,100);
},
{
glyphname = E;
lastChange = "2025-10-03 16:25:01 +0000";
layers = (
{
layerId = m01;
shapes = (
{
closed = 1;
nodes = (
(620,0,l),
(620,119,l),
(150,119,ls),
(142,119,o),
(130,131,o),
(130,140,qs),
(130,207,ls),
(130,216,o),
(142,229,o),
(150,229,qs),
(620,229,l),
(620,331,l),
(150,331,ls),
(142,331,o),
(130,344,o),
(130,353,qs),
(130,425,ls),
(130,432,o),
(141,441,o),
(150,441,qs),
(620,441,l),
(620,700,l),
(81,700,ls),
(55,700,o),
(20,672,o),
(20,650,qs),
(20,64,ls),
(20,36,o),
(55,0,o),
(81,0,qs)
);
}
);
width = 640;
},
{
layerId = m002;
shapes = (
{
closed = 1;
nodes = (
(620,0,l),
(620,119,l),
(332,119,ls),
(327,119,o),
(320,131,o),
(320,140,qs),
(320,207,ls),
(320,216,o),
(327,229,o),
(332,229,qs),
(620,229,l),
(620,331,l),
(560,331,ls),
(557,331,o),
(552,344,o),
(552,353,qs),
(552,425,ls),
(552,432,o),
(556,441,o),
(560,441,qs),
(620,441,l),
(620,700,l),
(81,700,ls),
(55,700,o),
(20,672,o),
(20,650,qs),
(20,64,ls),
(20,36,o),
(55,0,o),
(81,0,qs)
);
}
);
width = 640;
}
);
note = E;
unicode = (69,101);
},
{
glyphname = F;
lastChange = "2025-10-03 16:25:01 +0000";
layers = (
{
layerId = m01;
shapes = (
{
closed = 1;
nodes = (
(20,0,l),
(620,0,l),
(620,700,l),
(81,700,ls),
(55,700,o),
(20,665,o),
(20,639,qs)
);
},
{
closed = 1;
nodes = (
(130,280,ls),
(130,290,o),
(140,290,qs),
(620,290,l),
(620,0,l),
(130,0,l)
);
},
{
closed = 1;
nodes = (
(130,476,ls),
(130,484,o),
(142,496,o),
(150,496,qs),
(620,496,l),
(620,386,l),
(150,386,ls),
(142,386,o),
(130,398,o),
(130,406,qs)
);
}
);
width = 640;
},
{
layerId = m002;
shapes = (
{
closed = 1;
nodes = (
(20,0,l),
(620,0,l),
(620,700,l),
(81,700,ls),
(55,700,o),
(20,653,o),
(20,618,qs)
);
},
{
closed = 1;
nodes = (
(130,44,ls),
(130,61,o),
(140,61,qs),
(620,61,l),
(620,0,l),
(130,0,l)
);
},
{
closed = 1;
nodes = (
(130,285,ls),
(130,296,o),
(142,312,o),
(150,312,qs),
(620,312,l),
(620,228,l),
(150,228,ls),
(142,228,o),
(130,249,o),
(130,263,qs)
);
}
);
width = 640;
}
);
note = F;
unicode = (70,102);
},
{
glyphname = G;
lastChange = "2025-10-03 16:25:01 +0000";
layers = (
{
layerId = m01;
shapes = (
{
closed = 1;
nodes = (
(620,0,l),
(620,436,ls),
(620,462,o),
(585,497,o),
(559,497,qs),
(186,497,l),
(186,351,l),
(481,351,ls),
(491,351,o),
(491,341,qs),
(491,305,ls),
(491,295,o),
(481,295,qs),
(171,295,ls),
(158,295,o),
(140,313,o),
(140,326,qs),
(140,534,ls),
(140,547,o),
(158,565,o),
(171,565,qs),
(620,565,l),
(620,700,l),
(81,700,ls),
(55,700,o),
(20,665,o),
(20,639,qs),
(20,61,ls),
(20,35,o),
(55,0,o),
(81,0,qs)
);
}
);
width = 640;
},
{
layerId = m002;
shapes = (
{
closed = 1;
nodes = (
(620,0,l),
(620,390,ls),
(620,432,o),
(585,489,o),
(559,489,qs),
(174,489,l),
(174,251,l),
(239,251,ls),
(241,251,o),
(241,235,qs),
(241,176,ls),
(241,160,o),
(239,160,qs),
(171,160,ls),
(158,160,o),
(140,189,o),
(140,211,qs),
(140,446,ls),
(140,483,o),
(158,532,o),
(171,532,qs),
(620,532,l),
(620,700,l),
(81,700,ls),
(55,700,o),
(20,641,o),
(20,597,qs),
(20,61,ls),
(20,35,o),
(55,0,o),
(81,0,qs)
);
}
);
width = 640;
}
);
note = G;
unicode = (71,103);
},
{
glyphname = H;
lastChange = "2025-10-03 16:25:01 +0000";
layers = (
{
layerId = m01;
shapes = (
{
closed = 1;
nodes = (
(20,0,l),
(620,0,l),
(620,239,ls),
(620,252,o),
(602,270,o),
(589,270,qs),
(551,270,ls),
(538,270,o),
(520,288,o),
(520,301,qs),
(520,599,ls),
(520,612,o),
(538,630,o),
(551,630,qs),
(589,630,ls),
(602,630,o),
(620,648,o),
(620,661,qs),
(620,700,l),
(20,700,l),
(20,661,ls),
(20,648,o),
(38,630,o),
(51,630,qs),
(89,630,ls),
(102,630,o),
(120,612,o),
(120,599,qs),
(120,301,ls),
(120,288,o),
(102,270,o),
(89,270,qs),
(51,270,ls),
(38,270,o),
(20,252,o),
(20,239,qs)
);
},
{
closed = 1;
nodes = (
(270,320,ls),
(270,333,o),
(288,351,o),
(301,351,qs),
(339,351,ls),
(352,351,o),
(370,333,o),
(370,320,qs),
(370,0,l),
(270,0,l)
);
},
{
closed = 1;
nodes = (
(270,700,l),
(370,700,l),
(370,531,ls),
(370,518,o),
(352,500,o),
(339,500,qs),
(301,500,ls),
(288,500,o),
(270,518,o),
(270,531,qs)
);
}
);
width = 640;
},
{
layerId = m002;
shapes = (
{
closed = 1;
nodes = (
(20,0,l),
(620,0,l),
(620,239,ls),
(620,252,o),
(602,270,o),
(589,270,qs),
(590,270,ls),
(577,270,o),
(559,288,o),
(559,301,qs),
(559,599,ls),
(559,612,o),
(577,630,o),
(590,630,qs),
(589,630,ls),
(602,630,o),
(620,648,o),
(620,661,qs),
(620,700,l),
(20,700,l),
(20,661,ls),
(20,648,o),
(38,630,o),
(51,630,qs),
(49,630,ls),
(62,630,o),
(80,612,o),
(80,599,qs),
(80,301,ls),
(80,288,o),
(62,270,o),
(49,270,qs),
(51,270,ls),
(38,270,o),
(20,252,o),
(20,239,qs)
);
},
{
closed = 1;
nodes = (
(270,15,ls),
(270,28,o),
(288,46,o),
(301,46,qs),
(339,46,ls),
(352,46,o),
(370,28,o),
(370,15,qs),
(370,0,l),
(270,0,l)
);
},
{
closed = 1;
nodes = (
(270,700,l),
(370,700,l),
(370,665,ls),
(370,652,o),
(352,634,o),
(339,634,qs),
(301,634,ls),
(288,634,o),
(270,652,o),
(270,665,qs)
);
}
);
width = 640;
}
);
note = H;
unicode = (72,104);
},
{
glyphname = I;
lastChange = "2025-10-03 16:25:01 +0000";
layers = (
{
layerId = m01;
shapes = (
{
closed = 1;
nodes = (
(20,0,l),
(380,0,l),
(380,70,ls),
(380,96,o),
(345,131,o),
(319,131,qs),
(281,131,ls),
(268,131,o),
(250,149,o),
(250,162,qs),
(250,574,ls),
(250,587,o),
(268,605,o),
(281,605,qs),
(302,605,o),
(330,640,o),
(330,666,qs),
(330,700,l),
(70,700,l),
(70,666,ls),
(70,640,o),
(98,605,o),
(119,605,qs),
(132,605,o),
(150,587,o),
(150,574,qs),
(150,162,ls),
(150,149,o),
(132,131,o),
(119,131,qs),
(81,131,ls),
(55,131,o),
(20,96,o),
(20,70,qs)
);
}
);
width = 400;
},
{
layerId = m002;
shapes = (
{
closed = 1;
nodes = (
(20,0,l),
(380,0,l),
(380,41,ls),
(380,57,o),
(345,78,o),
(319,78,qs),
(281,78,ls),
(268,78,o),
(250,88,o),
(250,96,qs),
(250,336,ls),
(250,344,o),
(268,355,o),
(281,355,qs),
(302,355,o),
(330,376,o),
(330,390,qs),
(330,410,l),
(70,410,l),
(70,390,ls),
(70,376,o),
(98,355,o),
(119,355,qs),
(132,355,o),
(150,344,o),
(150,336,qs),
(150,96,ls),
(150,88,o),
(132,78,o),
(119,78,qs),
(81,78,ls),
(55,78,o),
(20,57,o),
(20,41,qs)
);
}
);
width = 400;
}
);
note = I;
unicode = (73,105);
},
{
glyphname = J;
lastChange = "2025-10-03 16:25:01 +0000";
layers = (
{
layerId = m01;
shapes = (
{
closed = 1;
nodes = (
(456,0,ls),
(493,0,o),
(520,26,o),
(520,61,cs),
(520,639,ls),
(520,674,o),
(493,700,o),
(456,700,cs),
(206,699,l),
(206,557,l),
(337,558,ls),
(354,558,o),
(369,544,o),
(369,527,cs),
(369,270,ls),
(369,253,o),
(354,239,o),
(337,239,cs),
(20,240,l),
(20,1,l)
);
}
);
width = 540;
},
{
layerId = m002;
shapes = (
{
closed = 1;
nodes = (
(456,0,ls),
(493,0,o),
(520,26,o),
(520,61,cs),
(520,639,ls),
(520,674,o),
(493,700,o),
(456,700,cs),
(20,699,l),
(20,557,l),
(248,558,ls),
(265,558,o),
(280,544,o),
(280,527,cs),
(280,270,ls),
(280,253,o),
(265,239,o),
(248,239,cs),
(100,240,l),
(100,1,l)
);
}
);
width = 540;
}
);
note = J;
unicode = (74,106);
},
{
glyphname = K;
lastChange = "2025-10-03 16:25:01 +0000";
layers = (
{
layerId = m01;
shapes = (
{
closed = 1;
nodes = (
(285,0,l),
(285,279,ls),
(285,289,o),
(295,289,qs),
(416,289,ls),
(426,289,o),
(426,279,qs),
(426,0,l),
(620,0,l),
(620,390,ls),
(620,416,o),
(585,451,o),
(559,451,qs),
(505,451,ls),
(492,451,o),
(474,469,o),
(474,482,qs),
(474,589,ls),
(474,602,o),
(492,620,o),
(505,620,qs),
(620,620,l),
(620,700,l),
(361,700,ls),
(348,700,o),
(330,682,o),
(330,669,qs),
(330,410,ls),
(330,400,o),
(320,400,qs),
(150,400,ls),
(140,400,o),
(140,410,qs),
(140,700,l),
(20,700,l),
(20,0,l)
);
}
);
width = 640;
},
{
layerId = m002;
shapes = (
{
closed = 1;
nodes = (
(220,0,l),
(220,115,ls),
(220,125,o),
(230,125,qs),
(470,125,ls),
(480,125,o),
(480,115,qs),
(480,0,l),
(620,0,l),
(620,390,ls),
(620,416,o),
(585,451,o),
(559,451,qs),
(580,451,ls),
(567,451,o),
(549,469,o),
(549,482,qs),
(549,589,ls),
(549,602,o),
(567,620,o),
(580,620,qs),
(620,620,l),
(620,700,l),
(361,700,ls),
(348,700,o),
(330,682,o),
(330,669,qs),
(330,595,ls),
(330,585,o),
(320,585,qs),
(220,585,ls),
(210,585,o),
(210,595,qs),
(210,700,l),
(20,700,l),
(20,0,l)
);
}
);
width = 640;
}
);
note = K;
unicode = (75,107);
},
{
glyphname = L;
lastChange = "2025-10-03 16:25:01 +0000";
layers = (
{
layerId = m01;
shapes = (
{
closed = 1;
nodes = (
(620,0,l),
(620,263,l),
(225,263,ls),
(199,263,o),
(164,298,o),
(164,324,qs),
(164,700,l),
(20,700,l),
(20,61,ls),
(20,35,o),
(55,0,o),
(81,0,qs)
);
}
);
width = 640;
},
{
layerId = m002;
shapes = (
{
closed = 1;
nodes = (
(620,0,l),
(620,519,l),
(500,519,ls),
(474,519,o),
(439,554,o),
(439,580,qs),
(439,700,l),
(20,700,l),
(20,61,ls),
(20,35,o),
(55,0,o),
(81,0,qs)
);
}
);
width = 640;
}
);
note = L;
unicode = (76,108);
},
{
glyphname = M;
lastChange = "2025-10-03 16:25:01 +0000";
layers = (
{
layerId = m01;
shapes = (
{
closed = 1;
nodes = (
(120,0,l),
(120,300,ls),
(120,311,o),
(129,320,o),
(140,320,cs),
(220,320,ls),
(231,320,o),
(240,311,o),
(240,300,cs),
(240,61,ls),
(240,26,o),
(266,0,o),
(301,0,cs),
(479,0,ls),
(514,0,o),
(540,26,o),
(540,61,cs),
(540,300,ls),
(540,311,o),
(549,320,o),
(560,320,cs),
(640,320,ls),
(651,320,o),
(660,311,o),
(660,300,cs),
(660,0,l),
(760,0,l),
(760,639,ls),
(760,674,o),
(734,700,o),
(699,700,cs),
(501,700,ls),
(466,700,o),
(440,674,o),
(440,639,cs),
(440,220,ls),
(440,209,o),
(431,200,o),
(420,200,cs),
(360,200,ls),
(349,200,o),
(340,209,o),
(340,220,cs),
(340,639,ls),
(340,674,o),
(314,700,o),
(279,700,cs),
(81,700,ls),
(46,700,o),
(20,674,o),
(20,639,cs),
(20,0,l)
);
}
);
width = 780;
},
{
layerId = m002;
shapes = (
{
closed = 1;
nodes = (
(153,0,l),
(153,300,ls),
(153,311,o),
(156,320,o),
(160,320,cs),
(190,320,ls),
(194,320,o),
(196,311,o),
(196,300,cs),
(196,61,ls),
(196,26,o),
(206,0,o),
(219,0,cs),
(281,0,ls),
(315,0,o),
(341,26,o),
(341,61,cs),
(341,300,ls),
(341,311,o),
(349,320,o),
(360,320,cs),
(438,320,ls),
(449,320,o),
(458,311,o),
(458,300,cs),
(458,0,l),
(760,0,l),
(760,639,ls),
(760,674,o),
(734,700,o),
(699,700,cs),
(672,700,ls),
(587,700,o),
(524,698,o),
(524,694,cs),
(524,657,ls),
(524,656,o),
(502,656,o),
(474,656,cs),
(329,656,ls),
(302,656,o),
(281,656,o),
(281,657,cs),
(281,694,ls),
(281,698,o),
(217,700,o),
(132,700,cs),
(81,700,ls),
(46,700,o),
(20,674,o),
(20,639,cs),
(20,0,l)
);
}
);
width = 780;
}
);
note = M;
unicode = (77,109);
},
{
glyphname = N;
lastChange = "2025-10-03 16:25:01 +0000";
layers = (
{
layerId = m01;
shapes = (
{
closed = 1;
nodes = (
(127,0,l),
(127,369,ls),
(127,386,o),
(140,400,o),
(155,400,cs),
(359,400,ls),
(376,400,o),
(390,386,o),
(390,369,cs),
(390,0,l),
(620,0,l),
(620,598,ls),
(620,657,o),
(577,700,o),
(518,700,cs),
(20,700,l),
(20,0,l)
);
}
);
width = 640;
},
{
layerId = m002;
shapes = (
{
closed = 1;
nodes = (
(455,0,l),
(455,76,ls),
(455,80,o),
(459,83,o),
(463,83,cs),
(518,83,ls),
(522,83,o),
(526,80,o),
(526,76,cs),
(526,0,l),
(620,0,l),
(620,598,ls),
(620,657,o),
(577,700,o),
(518,700,cs),
(20,700,l),
(20,0,l)
);
}
);
width = 640;
}
);
note = N;
unicode = (78,110);
},
{
glyphname = O;
lastChange = "2025-10-03 16:25:01 +0000";
layers = (
{
layerId = m01;
shapes = (
{
closed = 1;
nodes = (
(467,0,ls),
(510,0,o),
(580,40,o),
(620,110,o),
(620,153,qs),
(620,547,ls),
(620,590,o),
(580,660,o),
(510,700,o),
(467,700,qs),
(173,700,ls),
(130,700,o),
(60,660,o),
(20,590,o),
(20,547,qs),
(20,153,ls),
(20,110,o),
(60,40,o),
(130,0,o),
(173,0,qs)
);
},
{
closed = 1;
nodes = (
(280,125,o),
(211,186,o),
(170,290,o),
(170,351,qs),
(170,412,o),
(211,515,o),
(280,575,o),
(320,575,qs),
(360,575,o),
(429,515,o),
(470,412,o),
(470,351,qs),
(470,290,o),
(429,186,o),
(360,125,o),
(320,125,qs)
);
}
);
width = 640;
},
{
layerId = m002;
shapes = (
{
closed = 1;
nodes = (
(467,0,ls),
(510,0,o),
(580,40,o),
(620,110,o),
(620,153,qs),
(620,547,ls),
(620,590,o),
(580,660,o),
(510,700,o),
(467,700,qs),
(173,700,ls),
(130,700,o),
(60,660,o),
(20,590,o),
(20,547,qs),
(20,153,ls),
(20,110,o),
(60,40,o),
(130,0,o),
(173,0,qs)
);
},
{
closed = 1;
nodes = (
(302,88,o),
(276,158,o),
(260,278,o),
(260,353,qs),
(260,423,o),
(276,543,o),
(302,613,o),
(318,613,qs),
(334,613,o),
(360,543,o),
(376,423,o),
(376,353,qs),
(376,278,o),
(360,158,o),
(334,88,o),
(318,88,qs)
);
}
);
width = 640;
}
);
note = O;
unicode = (79,111);
},
{
glyphname = P;
lastChange = "2025-10-03 16:25:01 +0000";
layers = (
{
layerId = m01;
shapes = (
{
closed = 1;
nodes = (
(155,0,l),
(155,414,ls),
(155,428,o),
(173,445,o),
(189,445,qs),
(338,445,ls),
(350,445,o),
(367,427,o),
(367,414,qs),
(367,406,ls),
(367,393,o),
(350,375,o),
(338,375,qs),
(251,375,ls),
(239,375,o),
(222,357,o),
(222,344,qs),
(222,270,l),
(559,270,ls),
(585,270,o),
(620,305,o),
(620,331,qs),
(620,639,ls),
(620,665,o),
(585,700,o),
(559,700,qs),
(20,700,l),
(20,0,l)
);
}
);
width = 640;
},
{
layerId = m002;
shapes = (
{
closed = 1;
nodes = (
(181,0,l),
(181,540,ls),
(181,586,o),
(203,639,o),
(222,639,qs),
(338,639,ls),
(350,639,o),
(367,581,o),
(367,540,qs),
(367,513,ls),
(367,471,o),
(350,412,o),
(338,412,qs),
(251,412,ls),
(239,412,o),
(222,354,o),
(222,313,qs),
(222,74,l),
(559,74,ls),
(585,74,o),
(620,187,o),
(620,272,qs),
(620,639,ls),
(620,665,o),
(585,700,o),
(559,700,qs),
(20,700,l),
(20,0,l)
);
}
);
width = 640;
}
);
note = P;
unicode = (80,112);
},
{
glyphname = Q;
lastChange = "2025-10-03 16:25:01 +0000";
layers = (
{
layerId = m01;
shapes = (
{
closed = 1;
nodes = (
(467,0,ls),
(510,0,o),
(580,40,o),
(620,110,o),
(620,153,qs),
(620,547,ls),
(620,590,o),
(580,660,o),
(510,700,o),
(467,700,qs),
(173,700,ls),
(130,700,o),
(60,660,o),
(20,590,o),
(20,547,qs),
(20,153,ls),
(20,110,o),
(60,40,o),
(130,0,o),
(173,0,qs)
);
},
{
closed = 1;
nodes = (
(470,183,l),
(382,184,ls),
(346,184,o),
(320,159,o),
(320,123,cs),
(320,-85,ls),
(320,-96,o),
(329,-105,o),
(340,-105,cs),
(449,-107,ls),
(461,-107,o),
(470,-98,o),
(470,-86,cs)
);
},
{
closed = 1;
nodes = (
(280,125,o),
(211,186,o),
(170,290,o),
(170,351,qs),
(170,412,o),
(211,515,o),
(280,575,o),
(320,575,qs),
(360,575,o),
(429,515,o),
(470,412,o),
(470,351,qs),
(470,290,o),
(429,186,o),
(360,125,o),
(320,125,qs)
);
}
);
width = 640;
},
{
layerId = m002;
shapes = (
{
closed = 1;
nodes = (
(467,0,ls),
(510,0,o),
(580,40,o),
(620,110,o),
(620,153,qs),
(620,547,ls),
(620,590,o),
(580,660,o),
(510,700,o),
(467,700,qs),
(173,700,ls),
(130,700,o),
(60,660,o),
(20,590,o),
(20,547,qs),
(20,153,ls),
(20,110,o),
(60,40,o),
(130,0,o),
(173,0,qs)
);
},
{
closed = 1;
nodes = (
(470,410,l),
(333,412,ls),
(277,412,o),
(237,368,o),
(237,305,cs),
(237,-57,ls),
(237,-76,o),
(251,-92,o),
(268,-92,cs),
(437,-96,ls),
(456,-96,o),
(470,-80,o),
(470,-59,cs)
);
},
{
closed = 1;
nodes = (
(322,125,o),
(269,173,o),
(237,254,o),
(237,302,qs),
(237,349,o),
(269,430,o),
(322,477,o),
(354,477,qs),
(385,477,o),
(438,430,o),
(470,349,o),
(470,302,qs),
(470,254,o),
(438,173,o),
(385,125,o),
(354,125,qs)
);
}
);
width = 640;
}
);
note = Q;
unicode = (81,113);
},
{
glyphname = R;
lastChange = "2025-10-03 16:25:01 +0000";
layers = (
{
layerId = m01;
shapes = (
{
closed = 1;
nodes = (
(364,440,ls),
(375,440,o),
(384,431,o),
(384,420,cs),
(384,396,ls),
(384,385,o),
(375,376,o),
(364,376,cs),
(271,376,ls),
(254,376,o),
(240,362,o),
(240,345,cs),
(240,102,ls),
(240,43,o),
(283,0,o),
(342,0,cs),
(525,0,l),
(525,125,l),
(396,125,ls),
(379,125,o),
(365,139,o),
(365,156,cs),
(365,244,ls),
(365,261,o),
(379,275,o),
(396,275,cs),
(518,275,ls),
(577,275,o),
(620,318,o),
(620,377,cs),
(620,598,ls),
(620,657,o),
(577,700,o),
(518,700,cs),
(20,700,l),
(20,0,l),
(155,0,l),
(155,409,ls),
(155,426,o),
(169,440,o),
(186,440,cs)
);
}
);
width = 640;
},
{
layerId = m002;
shapes = (
{
closed = 1;
nodes = (
(569,440,ls),
(582,440,o),
(592,431,o),
(592,420,cs),
(592,396,ls),
(592,385,o),
(582,376,o),
(569,376,cs),
(321,376,ls),
(307,376,o),
(298,362,o),
(298,345,cs),
(298,102,ls),
(298,43,o),
(331,0,o),
(342,0,cs),
(622,0,l),
(622,125,l),
(555,125,ls),
(512,125,o),
(474,139,o),
(474,156,cs),
(474,244,ls),
(474,261,o),
(487,275,o),
(502,275,cs),
(518,275,ls),
(577,275,o),
(620,318,o),
(620,377,cs),
(620,598,ls),
(620,657,o),
(577,700,o),
(518,700,cs),
(20,700,l),
(20,0,l),
(247,0,l),
(247,409,ls),
(247,426,o),
(258,440,o),
(272,440,cs)
);
}
);
width = 640;
}
);
note = R;
unicode = (82,114);
},
{
glyphname = S;
lastChange = "2025-10-03 16:25:01 +0000";
layers = (
{
layerId = m01;
shapes = (
{
closed = 1;
nodes = (
(559,0,ls),
(594,0,o),
(620,26,o),
(620,61,cs),
(620,289,ls),
(620,324,o),
(594,350,o),
(559,350,cs),
(240,350,ls),
(229,350,o),
(220,359,o),
(220,370,cs),
(220,390,ls),
(220,401,o),
(229,410,o),
(240,410,cs),
(620,410,l),
(620,700,l),
(81,700,ls),
(46,700,o),
(20,674,o),
(20,639,cs),
(20,261,ls),
(20,226,o),
(46,200,o),
(81,200,cs),
(460,200,ls),
(471,200,o),
(480,191,o),
(480,180,cs),
(480,140,ls),
(480,129,o),
(471,120,o),
(460,120,cs),
(20,120,l),
(20,0,l)
);
}
);
width = 640;
},
{
layerId = m002;
shapes = (
{
closed = 1;
nodes = (
(559,0,ls),
(594,0,o),
(620,26,o),
(620,61,cs),
(620,542,ls),
(620,573,o),
(594,595,o),
(559,595,cs),
(240,595,ls),
(229,595,o),
(220,603,o),
(220,612,cs),
(220,630,ls),
(220,639,o),
(229,647,o),
(240,647,cs),
(620,647,l),
(620,700,l),
(81,700,ls),
(46,700,o),
(20,674,o),
(20,639,cs),
(20,556,ls),
(20,522,o),
(46,496,o),
(81,496,cs),
(460,496,ls),
(471,496,o),
(480,487,o),
(480,477,cs),
(480,140,ls),
(480,129,o),
(471,120,o),
(460,120,cs),
(20,120,l),
(20,0,l)
);
}
);
width = 640;
}
);
note = S;
unicode = (83,115);
},
{
glyphname = T;
lastChange = "2025-10-03 16:25:01 +0000";
layers = (
{
layerId = m01;
shapes = (
{
closed = 1;
nodes = (
(209,500,ls),
(226,500,o),
(240,486,o),
(240,469,cs),
(240,0,l),
(400,0,l),
(400,469,ls),
(400,486,o),
(414,500,o),
(431,500,cs),
(620,500,l),
(620,700,l),
(20,700,l),
(20,500,l)
);
}
);
width = 640;
},
{
layerId = m002;
shapes = (
{
closed = 1;
nodes = (
(209,222,ls),
(226,222,o),
(240,187,o),
(240,145,cs),
(240,0,l),
(400,0,l),
(400,145,ls),
(400,187,o),
(414,222,o),
(431,222,cs),
(620,222,l),
(620,700,l),
(20,700,l),
(20,222,l)
);
}
);
width = 640;
}
);
note = T;
unicode = (84,116);
},
{
glyphname = U;
lastChange = "2025-10-03 16:25:01 +0000";
layers = (
{
layerId = m01;
shapes = (
{
closed = 1;
nodes = (
(559,0,ls),
(594,0,o),
(620,26,o),
(620,61,cs),
(620,700,l),
(500,700,l),
(500,311,ls),
(500,294,o),
(486,280,o),
(469,280,cs),
(281,280,ls),
(264,280,o),
(250,294,o),
(250,311,cs),
(250,700,l),
(20,700,l),
(20,61,ls),
(20,26,o),
(46,0,o),
(81,0,cs)
);
}
);
width = 640;
},
{
layerId = m002;
shapes = (
{
closed = 1;
nodes = (
(559,0,ls),
(594,0,o),
(620,26,o),
(620,61,cs),
(620,700,l),
(329,700,l),
(329,629,ls),
(329,626,o),
(324,623,o),
(319,623,cs),
(260,623,ls),
(254,623,o),
(250,626,o),
(250,629,cs),
(250,700,l),
(20,700,l),
(20,61,ls),
(20,26,o),
(46,0,o),
(81,0,cs)
);
}
);
width = 640;
}
);
note = U;
unicode = (85,117);
},
{
glyphname = V;
lastChange = "2025-10-03 16:25:01 +0000";
layers = (
{
layerId = m01;
shapes = (
{
closed = 1;
nodes = (
(270,639,ls),
(270,674,o),
(244,700,o),
(209,700,cs),
(20,700,l),
(20,500,l),
(120,500,l),
(120,61,ls),
(120,26,o),
(146,0,o),
(181,0,cs),
(459,0,ls),
(494,0,o),
(520,26,o),
(520,61,cs),
(520,500,l),
(620,500,l),
(620,700,l),
(431,700,ls),
(396,700,o),
(370,674,o),
(370,639,cs),
(370,220,ls),
(370,209,o),
(361,200,o),
(350,200,cs),
(290,200,ls),
(279,200,o),
(270,209,o),
(270,220,cs)
);
}
);
width = 640;
},
{
layerId = m002;
shapes = (
{
closed = 1;
nodes = (
(270,639,ls),
(270,674,o),
(244,700,o),
(209,700,cs),
(20,700,l),
(20,500,l),
(50,500,l),
(50,61,ls),
(50,26,o),
(65,0,o),
(85,0,cs),
(548,0,ls),
(568,0,o),
(583,26,o),
(583,61,cs),
(583,500,l),
(620,500,l),
(620,700,l),
(431,700,ls),
(396,700,o),
(370,674,o),
(370,639,cs),
(370,621,ls),
(370,597,o),
(361,578,o),
(350,578,cs),
(290,578,ls),
(279,578,o),
(270,597,o),
(270,621,cs)
);
}
);
width = 640;
}
);
note = V;
unicode = (86,118);
},
{
glyphname = W;
lastChange = "2025-10-03 16:25:01 +0000";
layers = (
{
layerId = m01;
shapes = (
{
closed = 1;
nodes = (
(275,0,ls),
(305,0,o),
(328,26,o),
(328,61,cs),
(328,327,ls),
(328,338,o),
(336,347,o),
(346,347,cs),
(434,347,ls),
(444,347,o),
(452,338,o),
(452,327,cs),
(452,61,ls),
(452,26,o),
(475,0,o),
(505,0,cs),
(706,0,ls),
(737,0,o),
(760,26,o),
(760,61,cs),
(760,700,l),
(628,700,l),
(628,270,ls),
(628,259,o),
(620,250,o),
(610,250,cs),
(557,250,ls),
(548,250,o),
(540,259,o),
(540,270,cs),
(540,439,ls),
(540,474,o),
(517,500,o),
(486,500,cs),
(294,500,ls),
(263,500,o),
(240,474,o),
(240,439,cs),
(240,270,ls),
(240,259,o),
(232,250,o),
(223,250,cs),
(170,250,ls),
(160,250,o),
(152,259,o),
(152,270,cs),
(152,700,l),
(20,700,l),
(20,61,ls),
(20,26,o),
(43,0,o),
(74,0,cs)
);
}
);
width = 780;
},
{
layerId = m002;
shapes = (
{
closed = 1;
nodes = (
(275,0,ls),
(305,0,o),
(328,26,o),
(328,61,cs),
(328,122,ls),
(328,133,o),
(336,142,o),
(346,142,cs),
(434,142,ls),
(444,142,o),
(452,133,o),
(452,122,cs),
(452,61,ls),
(452,26,o),
(475,0,o),
(505,0,cs),
(706,0,ls),
(737,0,o),
(760,26,o),
(760,61,cs),
(760,700,l),
(706,700,l),
(706,270,ls),
(706,259,o),
(688,250,o),
(667,250,cs),
(557,250,ls),
(548,250,o),
(540,259,o),
(540,270,cs),
(540,346,ls),
(540,381,o),
(517,407,o),
(486,407,cs),
(294,407,ls),
(213,407,o),
(194,381,o),
(194,346,cs),
(194,270,ls),
(194,259,o),
(187,250,o),
(180,250,cs),
(94,250,ls),
(78,250,o),
(65,259,o),
(65,270,cs),
(65,700,l),
(20,700,l),
(20,61,ls),
(20,26,o),
(43,0,o),
(74,0,cs)
);
}
);
width = 780;
}
);
note = W;
unicode = (87,119);
},
{
glyphname = X;
lastChange = "2025-10-03 16:25:01 +0000";
layers = (
{
layerId = m01;
shapes = (
{
closed = 1;
nodes = (
(342,210,l),
(465,24,ls),
(475,9,o),
(491,0,o),
(509,0,cs),
(680,1,l),
(680,100,l),
(613,100,ls),
(604,100,o),
(596,104,o),
(591,112,cs),
(434,348,l),
(596,589,ls),
(601,597,o),
(609,600,o),
(618,600,cs),
(680,600,l),
(680,700,l),
(508,700,ls),
(490,700,o),
(475,692,o),
(465,677,cs),
(340,489,l),
(215,677,ls),
(205,692,o),
(190,700,o),
(172,700,cs),
(0,700,l),
(0,601,l),
(69,601,ls),
(78,601,o),
(86,597,o),
(91,589,cs),
(249,351,l),
(91,112,ls),
(86,105,o),
(78,100,o),
(69,100,cs),
(0,100,l),
(0,0,l),
(172,0,ls),
(189,0,o),
(206,9,o),
(216,23,cs)
);
}
);
width = 680;
},
{
layerId = m002;
shapes = (
{
closed = 1;
nodes = (
(342,24,l),
(465,24,ls),
(480,24,o),
(491,0,o),
(509,0,cs),
(680,1,l),
(680,100,l),
(613,100,ls),
(604,100,o),
(591,104,o),
(591,112,cs),
(591,348,l),
(596,589,ls),
(596,597,o),
(609,600,o),
(618,600,cs),
(680,600,l),
(680,700,l),
(508,700,ls),
(490,700,o),
(483,677,o),
(465,677,cs),
(340,677,l),
(215,677,ls),
(197,677,o),
(190,700,o),
(172,700,cs),
(0,700,l),
(0,601,l),
(69,601,ls),
(78,601,o),
(91,597,o),
(91,589,cs),
(91,351,l),
(91,112,ls),
(91,105,o),
(78,100,o),
(69,100,cs),
(0,100,l),
(0,0,l),
(172,0,ls),
(189,0,o),
(201,23,o),
(216,23,cs)
);
}
);
width = 680;
}
);
note = X;
unicode = (88,120);
},
{
glyphname = Y;
lastChange = "2025-10-03 16:25:01 +0000";
layers = (
{
layerId = m01;
shapes = (
{
closed = 1;
nodes = (
(559,0,ls),
(585,0,o),
(620,35,o),
(620,61,qs),
(620,700,l),
(500,700,l),
(500,510,ls),
(500,500,o),
(490,500,qs),
(280,500,ls),
(270,500,o),
(270,510,qs),
(270,700,l),
(20,700,l),
(20,371,ls),
(20,345,o),
(55,310,o),
(81,310,qs),
(469,310,ls),
(482,310,o),
(500,292,o),
(500,279,qs),
(500,261,ls),
(500,248,o),
(482,230,o),
(469,230,qs),
(20,230,l),
(20,0,l)
);
}
);
width = 640;
},
{
layerId = m002;
shapes = (
{
closed = 1;
nodes = (
(559,0,ls),
(585,0,o),
(620,35,o),
(620,61,qs),
(620,700,l),
(173,700,l),
(173,391,ls),
(173,375,o),
(168,375,qs),
(70,375,ls),
(65,375,o),
(65,391,qs),
(65,700,l),
(20,700,l),
(20,371,ls),
(20,345,o),
(55,310,o),
(81,310,qs),
(555,310,ls),
(571,310,o),
(592,292,o),
(592,279,qs),
(592,111,ls),
(592,95,o),
(570,73,o),
(555,73,qs),
(20,73,l),
(20,0,l)
);
}
);
width = 640;
}
);
note = Y;
unicode = (89,121);
},
{
glyphname = Z;
lastChange = "2025-10-03 16:25:01 +0000";
layers = (
{
layerId = m01;
shapes = (
{
closed = 1;
nodes = (
(21,139,l),
(21,102,ls),
(21,43,o),
(64,0,o),
(123,0,cs),
(620,0,l),
(620,200,l),
(247,200,l),
(570,365,ls),
(601,381,o),
(619,411,o),
(619,445,cs),
(619,598,ls),
(619,657,o),
(576,700,o),
(517,700,cs),
(20,700,l),
(20,500,l),
(508,500,l),
(69,274,ls),
(39,258,o),
(20,228,o),
(20,194,cs),
(20,139,l)
);
}
);
width = 640;
},
{
layerId = m002;
shapes = (
{
closed = 1;
nodes = (
(21,139,l),
(21,102,ls),
(21,43,o),
(64,0,o),
(123,0,cs),
(620,0,l),
(620,36,l),
(247,36,l),
(570,365,ls),
(594,390,o),
(619,411,o),
(619,445,cs),
(619,598,ls),
(619,657,o),
(576,700,o),
(517,700,cs),
(20,700,l),
(21,618,l),
(509,618,l),
(69,274,ls),
(40,252,o),
(20,228,o),
(20,194,cs),
(20,139,l)
);
}
);
width = 640;
}
);
note = Z;
unicode = (90,122);
},
{
glyphname = zero;
lastChange = "2024-03-07 21:53:13 +0000";
layers = (
{
layerId = m01;
shapes = (
{
closed = 1;
nodes = (
(486,0,o),
(620,157,o),
(620,350,cs),
(620,543,o),
(486,700,o),
(321,700,cs),
(155,700,o),
(20,543,o),
(20,350,cs),
(20,157,o),
(155,0,o),
(321,0,cs)
);
},
{
closed = 1;
nodes = (
(210,140,o),
(120,234,o),
(120,350,cs),
(120,465,o),
(210,560,o),
(321,560,cs),
(431,560,o),
(520,465,o),
(520,350,cs),
(520,234,o),
(431,140,o),
(321,140,cs)
);
}
);
width = 640;
},
{
layerId = m002;
shapes = (
{
closed = 1;
nodes = (
(486,0,o),
(620,157,o),
(620,350,cs),
(620,543,o),
(486,700,o),
(321,700,cs),
(155,700,o),
(20,543,o),
(20,350,cs),
(20,157,o),
(155,0,o),
(321,0,cs)
);
},
{
closed = 1;
nodes = (
(266,65,o),
(221,110,o),
(221,165,cs),
(221,220,o),
(266,265,o),
(322,265,cs),
(377,265,o),
(421,220,o),
(421,165,cs),
(421,110,o),
(377,65,o),
(322,65,cs)
);
}
);
width = 640;
}
);
note = zero;
unicode = 48;
},
{
glyphname = one;
lastChange = "2024-03-07 21:54:07 +0000";
layers = (
{
layerId = m01;
shapes = (
{
closed = 1;
nodes = (
(522,0,l),
(522,639,ls),
(522,674,o),
(496,700,o),
(461,700,cs),
(170,700,l),
(170,580,l),
(302,580,ls),
(313,580,o),
(322,571,o),
(322,560,cs),
(322,0,l)
);
}
);
width = 640;
},
{
layerId = m002;
shapes = (
{
closed = 1;
nodes = (
(636,0,l),
(636,639,ls),
(636,674,o),
(605,700,o),
(562,700,cs),
(219,700,l),
(219,580,l),
(29,580,ls),
(13,580,o),
(0,571,o),
(0,560,cs),
(0,0,l)
);
}
);
width = 640;
}
);
note = one;
unicode = 49;
},
{
glyphname = two;
lastChange = "2024-03-07 21:55:21 +0000";
layers = (
{
layerId = m01;
shapes = (
{
closed = 1;
nodes = (
(620,0,l),
(620,220,l),
(255,220,ls),
(244,220,o),
(235,229,o),
(235,240,cs),
(235,300,ls),
(235,311,o),
(244,320,o),
(255,320,cs),
(559,320,ls),
(594,320,o),
(620,346,o),
(620,381,cs),
(620,639,ls),
(620,674,o),
(594,700,o),
(559,700,cs),
(20,700,l),
(20,565,l),
(460,565,ls),
(471,565,o),
(480,556,o),
(480,545,cs),
(480,495,ls),
(480,484,o),
(471,475,o),
(460,475,cs),
(81,475,ls),
(46,475,o),
(20,449,o),
(20,414,cs),
(20,61,ls),
(20,26,o),
(46,0,o),
(81,0,cs)
);
}
);
width = 640;
},
{
layerId = m002;
shapes = (
{
closed = 1;
nodes = (
(620,0,l),
(620,220,l),
(520,220,ls),
(509,220,o),
(500,229,o),
(500,240,cs),
(500,300,ls),
(500,311,o),
(509,320,o),
(520,320,cs),
(559,320,ls),
(594,320,o),
(620,346,o),
(620,381,cs),
(620,639,ls),
(620,674,o),
(594,700,o),
(559,700,cs),
(20,700,l),
(20,565,l),
(160,565,ls),
(171,565,o),
(180,556,o),
(180,545,cs),
(180,495,ls),
(180,484,o),
(171,475,o),
(160,475,cs),
(81,475,ls),
(46,475,o),
(20,449,o),
(20,414,cs),
(20,61,ls),
(20,26,o),
(46,0,o),
(81,0,cs)
);
}
);
width = 640;
}
);
note = two;
unicode = 50;
},
{
glyphname = three;
lastChange = "2024-03-07 21:56:44 +0000";
layers = (
{
layerId = m01;
shapes = (
{
closed = 1;
nodes = (
(559,0,ls),
(594,0,o),
(620,26,o),
(620,61,cs),
(620,639,ls),
(620,674,o),
(594,700,o),
(559,700,cs),
(20,700,l),
(20,0,l)
);
},
{
closed = 1;
nodes = (
(20,300,l),
(400,300,ls),
(411,300,o),
(420,291,o),
(420,280,cs),
(420,200,ls),
(420,189,o),
(411,180,o),
(400,180,cs),
(20,180,l)
);
},
{
closed = 1;
nodes = (
(20,560,l),
(400,560,ls),
(411,560,o),
(420,551,o),
(420,540,cs),
(420,460,ls),
(420,449,o),
(411,440,o),
(400,440,cs),
(20,440,l)
);
}
);
width = 640;
},
{
layerId = m002;
shapes = (
{
closed = 1;
nodes = (
(559,0,ls),
(594,0,o),
(620,26,o),
(620,61,cs),
(620,639,ls),
(620,674,o),
(594,700,o),
(559,700,cs),
(20,700,l),
(20,0,l)
);
},
{
closed = 1;
nodes = (
(20,355,l),
(530,355,ls),
(541,355,o),
(550,338,o),
(550,317,cs),
(550,163,ls),
(550,142,o),
(541,125,o),
(530,125,cs),
(20,125,l)
);
},
{
closed = 1;
nodes = (
(20,615,l),
(530,615,ls),
(541,615,o),
(550,598,o),
(550,577,cs),
(550,423,ls),
(550,402,o),
(541,385,o),
(530,385,cs),
(20,385,l)
);
}
);
width = 640;
}
);
note = three;
unicode = 51;
},
{
glyphname = four;
lastChange = "2024-03-07 21:57:34 +0000";
layers = (
{
layerId = m01;
shapes = (
{
closed = 1;
nodes = (
(360,200,l),
(360,0,l),
(526,0,l),
(526,200,l),
(620,200,l),
(620,342,l),
(526,342,l),
(526,520,l),
(360,520,l),
(360,342,l),
(220,341,l),
(220,699,l),
(20,700,l),
(20,261,ls),
(20,226,o),
(51,200,o),
(92,200,cs)
);
}
);
width = 640;
},
{
layerId = m002;
shapes = (
{
closed = 1;
nodes = (
(360,69,l),
(360,0,l),
(580,0,l),
(580,200,l),
(620,200,l),
(620,342,l),
(580,342,l),
(580,520,l),
(360,520,l),
(360,342,l),
(280,341,l),
(280,699,l),
(20,700,l),
(20,130,ls),
(20,95,o),
(51,69,o),
(92,69,cs)
);
}
);
width = 640;
}
);
note = four;
unicode = 52;
},
{
glyphname = five;
lastChange = "2024-03-07 21:59:56 +0000";
layers = (
{
layerId = m01;
shapes = (
{
closed = 1;
nodes = (
(559,0,ls),
(594,0,o),
(620,26,o),
(620,61,cs),
(620,329,ls),
(620,364,o),
(594,390,o),
(559,390,cs),
(251,390,ls),
(234,390,o),
(220,404,o),
(220,421,cs),
(220,459,ls),
(220,476,o),
(234,490,o),
(251,490,cs),
(620,490,l),
(620,700,l),
(81,700,ls),
(46,700,o),
(20,674,o),
(20,639,cs),
(20,291,ls),
(20,256,o),
(46,230,o),
(81,230,cs),
(439,230,ls),
(456,230,o),
(470,216,o),
(470,199,cs),
(470,161,ls),
(470,144,o),
(456,130,o),
(439,130,cs),
(20,130,l),
(20,0,l)
);
}
);
width = 640;
},
{
layerId = m002;
shapes = (
{
closed = 1;
nodes = (
(559,0,ls),
(594,0,o),
(620,26,o),
(620,61,cs),
(620,230,ls),
(620,311,o),
(588,372,o),
(544,372,cs),
(159,372,ls),
(138,372,o),
(120,406,o),
(120,446,cs),
(120,534,ls),
(120,574,o),
(138,607,o),
(159,607,cs),
(620,607,l),
(620,700,l),
(81,700,ls),
(46,700,o),
(20,674,o),
(20,639,cs),
(20,372,ls),
(20,306,o),
(50,255,o),
(91,255,cs),
(509,255,ls),
(529,255,o),
(545,228,o),
(545,196,cs),
(545,122,ls),
(545,90,o),
(529,64,o),
(509,64,cs),
(20,64,l),
(20,0,l)
);
}
);
width = 640;
}
);
note = five;
unicode = 53;
},
{
glyphname = six;
lastChange = "2024-03-07 22:00:25 +0000";
layers = (
{
layerId = m01;
shapes = (
{
closed = 1;
nodes = (
(559,0,ls),
(594,0,o),
(620,26,o),
(620,61,cs),
(620,444,ls),
(620,479,o),
(594,505,o),
(559,505,cs),
(231,505,ls),
(214,505,o),
(200,519,o),
(200,536,cs),
(200,564,ls),
(200,581,o),
(214,595,o),
(231,595,cs),
(620,595,l),
(620,700,l),
(81,700,ls),
(46,700,o),
(20,674,o),
(20,639,cs),
(20,61,ls),
(20,26,o),
(46,0,o),
(81,0,cs)
);
},
{
closed = 1;
nodes = (
(140,319,ls),
(140,336,o),
(153,350,o),
(169,350,cs),
(391,350,ls),
(407,350,o),
(420,336,o),
(420,319,cs),
(420,161,ls),
(420,144,o),
(407,130,o),
(391,130,cs),
(169,130,ls),
(153,130,o),
(140,144,o),
(140,161,cs)
);
}
);
width = 640;
},
{
layerId = m002;
shapes = (
{
closed = 1;
nodes = (
(559,0,ls),
(594,0,o),
(620,26,o),
(620,61,cs),
(620,179,ls),
(620,245,o),
(594,295,o),
(559,295,cs),
(231,295,ls),
(214,295,o),
(200,322,o),
(200,353,cs),
(200,407,ls),
(200,439,o),
(214,466,o),
(231,466,cs),
(620,466,l),
(620,700,l),
(81,700,ls),
(46,700,o),
(20,674,o),
(20,639,cs),
(20,61,ls),
(20,26,o),
(46,0,o),
(81,0,cs)
);
},
{
closed = 1;
nodes = (
(414,179,ls),
(414,188,o),
(420,196,o),
(428,196,cs),
(537,196,ls),
(544,196,o),
(551,188,o),
(551,179,cs),
(551,93,ls),
(551,84,o),
(544,76,o),
(537,76,cs),
(428,76,ls),
(420,76,o),
(414,84,o),
(414,93,cs)
);
}
);
width = 640;
}
);
note = six;
unicode = 54;
},
{
glyphname = seven;
lastChange = "2024-03-07 22:01:06 +0000";
layers = (
{
layerId = m01;
shapes = (
{
closed = 1;
nodes = (
(397,0,l),
(616,491,ls),
(619,498,o),
(620,504,o),
(620,510,cs),
(620,639,ls),
(620,674,o),
(594,700,o),
(559,700,cs),
(20,700,l),
(20,500,l),
(448,500,l),
(219,0,l)
);
}
);
width = 640;
},
{
layerId = m002;
shapes = (
{
closed = 1;
nodes = (
(397,0,l),
(616,591,ls),
(619,598,o),
(620,604,o),
(620,610,cs),
(620,639,ls),
(620,674,o),
(594,700,o),
(559,700,cs),
(20,700,l),
(20,600,l),
(448,600,l),
(219,0,l)
);
}
);
width = 640;
}
);
note = seven;
unicode = 55;
},
{
glyphname = eight;
lastChange = "2024-03-07 22:01:32 +0000";
layers = (
{
layerId = m01;
shapes = (
{
closed = 1;
nodes = (
(559,0,ls),
(594,0,o),
(620,26,o),
(620,61,cs),
(620,639,ls),
(620,674,o),
(594,700,o),
(559,700,cs),
(81,700,ls),
(46,700,o),
(20,674,o),
(20,639,cs),
(20,61,ls),
(20,26,o),
(46,0,o),
(81,0,cs)
);
},
{
closed = 1;
nodes = (
(170,309,ls),
(170,320,o),
(179,329,o),
(190,329,cs),
(450,329,ls),
(461,329,o),
(470,320,o),
(470,309,cs),
(470,149,ls),
(470,138,o),
(461,129,o),
(450,129,cs),
(190,129,ls),
(179,129,o),
(170,138,o),
(170,149,cs)
);
},
{
closed = 1;
nodes = (
(170,580,ls),
(170,591,o),
(179,600,o),
(190,600,cs),
(450,600,ls),
(461,600,o),
(470,591,o),
(470,580,cs),
(470,420,ls),
(470,409,o),
(461,400,o),
(450,400,cs),
(190,400,ls),
(179,400,o),
(170,409,o),
(170,420,cs)
);
}
);
width = 640;
},
{
layerId = m002;
shapes = (
{
closed = 1;
nodes = (
(559,0,ls),
(594,0,o),
(620,26,o),
(620,61,cs),
(620,639,ls),
(620,674,o),
(594,700,o),
(559,700,cs),
(81,700,ls),
(46,700,o),
(20,674,o),
(20,639,cs),
(20,61,ls),
(20,26,o),
(46,0,o),
(81,0,cs)
);
},
{
closed = 1;
nodes = (
(99,463,ls),
(99,483,o),
(111,500,o),
(126,500,cs),
(476,500,ls),
(491,500,o),
(503,483,o),
(503,463,cs),
(503,166,ls),
(503,146,o),
(491,129,o),
(476,129,cs),
(126,129,ls),
(111,129,o),
(99,146,o),
(99,166,cs)
);
},
{
closed = 1;
nodes = (
(420,613,ls),
(420,617,o),
(422,621,o),
(426,621,cs),
(497,621,ls),
(501,621,o),
(503,617,o),
(503,613,cs),
(503,550,ls),
(503,546,o),
(501,542,o),
(497,542,cs),
(426,542,ls),
(422,542,o),
(420,546,o),
(420,550,cs)
);
}
);
width = 640;
}
);
note = eight;
unicode = 56;
},
{
glyphname = nine;
lastChange = "2024-03-07 22:01:59 +0000";
layers = (
{
layerId = m01;
shapes = (
{
closed = 1;
nodes = (
(559,0,ls),
(594,0,o),
(620,26,o),
(620,61,cs),
(620,639,ls),
(620,674,o),
(594,700,o),
(559,700,cs),
(81,700,ls),
(46,700,o),
(20,674,o),
(20,639,cs),
(20,301,ls),
(20,266,o),
(46,240,o),
(81,240,cs),
(449,240,ls),
(466,240,o),
(480,226,o),
(480,209,cs),
(480,171,ls),
(480,154,o),
(466,140,o),
(449,140,cs),
(20,140,l),
(20,0,l)
);
},
{
closed = 1;
nodes = (
(120,469,ls),
(120,486,o),
(134,500,o),
(151,500,cs),
(289,500,ls),
(306,500,o),
(320,486,o),
(320,469,cs),
(320,411,ls),
(320,394,o),
(306,380,o),
(289,380,cs),
(151,380,ls),
(134,380,o),
(120,394,o),
(120,411,cs)
);
}
);
width = 640;
},
{
layerId = m002;
shapes = (
{
closed = 1;
nodes = (
(559,0,ls),
(594,0,o),
(620,26,o),
(620,61,cs),
(620,639,ls),
(620,674,o),
(594,700,o),
(559,700,cs),
(81,700,ls),
(46,700,o),
(20,674,o),
(20,639,cs),
(20,301,ls),
(20,266,o),
(25,240,o),
(31,240,cs),
(99,240,ls),
(102,240,o),
(104,226,o),
(104,209,cs),
(104,171,ls),
(104,154,o),
(102,140,o),
(99,140,cs),
(20,140,l),
(20,0,l)
);
},
{
closed = 1;
nodes = (
(443,469,ls),
(443,486,o),
(450,500,o),
(460,500,cs),
(537,500,ls),
(546,500,o),
(554,486,o),
(554,469,cs),
(554,411,ls),
(554,394,o),
(546,380,o),
(537,380,cs),
(460,380,ls),
(450,380,o),
(443,394,o),
(443,411,cs)
);
}
);
width = 640;
}
);
note = nine;
unicode = 57;
},
